# xmcd
#
# Track frame offsets:
#	150
#	19543
#	36980
#	54272
#	70584
#	86821
#	109424
#	127461
#	139606
#	153805
#	170422
#	187259
#	204906
#	222904
#
# Disc length: 3157 seconds
#
# Revision: 1
# Processed by: cddbd v1.5.2PL0 Copyright (c) Steve Scherf et al.
# Submitted via: audiograbber 1.83.01
#
DISCID=c80c530e
DTITLE=Various Artist - Hitz 2009 Vol. 4
DYEAR=2009
DGENRE=Country
TTITLE0=Brad Paisley - Then
TTITLE1=Darius Rucker - Alright
TTITLE2=Keith Urban - Kiss A Girl
TTITLE3=What I'm For - Pat Green
TTITLE4=Emily West - That Kind Of Happy
TTITLE5=Til The Last Shot's Fired - Trace Adkins
TTITLE6=Luke Bryan - Do I
TTITLE7=How 'Bout You Don't - The Lost Trailers
TTITLE8=8 Second Ride - Jake Owen
TTITLE9=Address In The Stars - Caitlin and Will
TTITLE10=Dead Flowers - Miranda Lambert
TTITLE11=Bobbi With An I - Phill Vassar
TTITLE12=Solitary Thinkin' - Lee Ann Womack
TTITLE13=Believers - Joe Nichols
EXTD=
EXTT0=
EXTT1=
EXTT2=
EXTT3=
EXTT4=
EXTT5=
EXTT6=
EXTT7=
EXTT8=
EXTT9=
EXTT10=
EXTT11=
EXTT12=
EXTT13=
PLAYORDER=
